<svg width="1006" height="282" viewBox="0 0 1006 282" fill="none" xmlns="http://www.w3.org/2000/svg">
<path fill-rule="evenodd" clip-rule="evenodd" d="M89.5338 71.0173C93.3765 77.6674 142.233 162.299 142.233 162.299C142.317 162.161 154.433 141.172 167.1 119.23C180.236 96.4756 193.964 72.6952 195.481 70.0762C198.461 64.9161 205.174 59.8187 213.22 59.8187C221.266 59.8187 236.934 59.9128 236.918 59.9128L160.026 193.09L160.034 193.103L142.233 223.923L47.5472 59.9128C47.5472 59.9128 63.1844 59.8187 71.2774 59.8187C79.3548 59.8187 85.6912 64.3672 89.5338 71.0173ZM269.635 223.875H238.91V80.3023C238.91 67.7863 249.654 59.8187 259.394 59.8187H269.635V223.875ZM777.177 142.632C777.177 188.15 740.277 225.049 694.759 225.049C649.241 225.049 612.341 188.15 612.341 142.632C612.341 97.1137 649.241 60.214 694.759 60.214C740.277 60.214 777.177 97.1137 777.177 142.632ZM747.207 142.632C747.207 171.598 723.725 195.079 694.759 195.079C665.793 195.079 642.311 171.598 642.311 142.632C642.311 113.666 665.793 90.1841 694.759 90.1841C723.725 90.1841 747.207 113.666 747.207 142.632ZM954 142.632C954 188.15 917.1 225.049 871.582 225.049C826.064 225.049 789.165 188.15 789.165 142.632C789.165 97.1137 826.064 60.214 871.582 60.214C917.1 60.214 954 97.1137 954 142.632ZM924.03 142.632C924.03 171.598 900.548 195.079 871.582 195.079C842.616 195.079 819.135 171.598 819.135 142.632C819.135 113.666 842.616 90.1841 871.582 90.1841C900.548 90.1841 924.03 113.666 924.03 142.632ZM621.542 224.063H622.75V223.875C622.75 221.585 622.628 219.311 622.444 217.067L622.451 216.975C618.938 174.957 583.743 141.941 540.815 141.941C539.168 141.941 537.537 142.004 535.922 142.098C535.687 142.114 535.456 142.133 535.224 142.153C534.993 142.173 534.761 142.192 534.526 142.208C533.334 142.302 532.142 142.412 530.966 142.553C530.743 142.583 530.521 142.609 530.301 142.635C530.054 142.664 529.81 142.692 529.57 142.725C528.268 142.898 526.982 143.118 525.696 143.353L525.526 143.381L525.28 143.423C525.143 143.447 525.006 143.47 524.864 143.494C523.243 143.821 521.653 144.18 520.063 144.584L568.937 59.9285L544.878 59.8658C538.228 60.0383 531.154 63.7711 527.39 70.2801L526.005 72.677C526.484 71.8378 526.946 71.0328 527.39 70.2644C523.531 76.9302 489.607 135.699 489.607 135.699V59.8187H479.365C467.9 59.8187 458.881 69.4645 458.881 80.3023V210.073V210.105V210.12C458.881 212.404 459.003 214.657 459.186 216.895L459.179 216.974C459.383 219.374 459.681 221.727 460.089 224.064H489.606V223.876C489.606 195.597 512.537 172.667 540.815 172.667C569.094 172.667 592.024 195.597 592.024 223.876V224.064L621.542 224.063ZM333.744 131.542C334.734 131.534 335.711 131.476 336.689 131.418C336.693 131.418 336.697 131.417 336.701 131.417C336.706 131.417 336.711 131.416 336.717 131.416C339.909 131.18 343.117 130.617 346.45 129.866C346.452 129.865 346.454 129.865 346.457 129.864C349.29 129.23 352.215 128.466 355.291 127.662C365.903 124.889 378.313 121.646 394.983 121.646C424.078 121.646 446.192 145.831 446.192 172.855C446.192 178.1 445.348 183.205 443.801 188.059L443.809 188.084C437.347 208.285 418.432 223.876 394.984 223.876H313.049V213.822C313.049 202.639 322.57 193.338 333.533 193.338H394.984C405.665 193.338 415.467 184.759 415.467 172.855C415.467 139.322 369.345 156.753 369.345 156.753C369.345 156.753 350.847 162.268 333.533 162.268C301.364 162.268 282.324 135.009 282.324 111.059C282.324 106.103 283.171 101.005 284.787 96.0336C290.95 76.9929 308.454 59.8187 333.533 59.8187H415.467V69.8723C415.467 79.9102 406.904 90.3559 394.984 90.3559H333.533C323.574 90.3559 313.049 98.9352 313.049 111.059C313.049 123.146 323.104 131.491 333.438 131.542L333.533 131.543C333.603 131.543 333.674 131.542 333.744 131.542Z" fill="white"/>
</svg>
